<?xml version="1.0" encoding="utf-8"?>
<!-- Generator: Adobe Illustrator 26.4.1, SVG Export Plug-In . SVG Version: 6.00 Build 0)  -->
<svg version="1.1" id="Layer_1" xmlns="http://www.w3.org/2000/svg" xmlns:xlink="http://www.w3.org/1999/xlink" x="0px" y="0px"
	 viewBox="0 0 423.24 373.04" style="enable-background:new 0 0 423.24 373.04;" xml:space="preserve">
<style type="text/css">
	.st0{fill:#FFFFFF;}
	.st1{fill:#F78142;}
</style>
<g>
	<g>
		<polygon class="st0" points="218.19,278.96 216.8,280.35 223.16,295.62 207.89,289.26 206.51,290.65 219.31,303.45 219.56,303.7 
			220.67,302.59 209.87,291.79 224.92,298.04 225.13,298.13 225.67,297.6 219.33,282.33 230.13,293.13 231.24,292.02 218.44,279.22 
					"/>
		<path class="st0" d="M233.38,266.78c-2.24,0-4.32,0.89-6.01,2.58c-3.66,3.66-3.44,8.99,0.53,12.96c2.01,2.01,4.48,3.11,6.96,3.11
			c2.24,0,4.31-0.89,6.01-2.59c3.6-3.6,3.38-9.05-0.53-12.96C238.34,267.88,235.87,266.78,233.38,266.78z M241.86,276.51
			c0.13,1.96-0.58,3.78-2.07,5.26c-1.37,1.37-3.04,2.1-4.82,2.1c-2.05,0-4.14-0.96-5.9-2.72c-3.39-3.39-3.64-7.7-0.62-10.72
			c1.37-1.37,3.04-2.1,4.82-2.1c2.05,0,4.14,0.96,5.89,2.72C240.78,272.66,241.73,274.6,241.86,276.51z"/>
		<path class="st0" d="M251.07,259.38c0.08-1.46-0.5-2.85-1.66-4.01c-1.09-1.09-2.38-1.66-3.73-1.66c-1.43,0-2.87,0.65-4.04,1.81
			l-4.58,4.58l12.8,12.8l0.26,0.26l1.11-1.11l-5.42-5.42l2.62-2.62l9.23,1.6l1.41-1.4l-9.34-1.55
			C250.54,261.67,251.01,260.53,251.07,259.38z M248.2,262.08l-3.46,3.47l-5.49-5.49l3.46-3.47c1.64-1.63,3.94-1.65,5.53-0.05
			C249.88,258.18,249.87,260.41,248.2,262.08z"/>
		<polygon class="st0" points="261.78,259.33 256.7,254.24 263.63,247.3 262.55,246.22 255.61,253.16 250.88,248.42 257.95,241.35 
			256.88,240.27 248.69,248.46 261.49,261.26 261.75,261.52 269.94,253.33 268.85,252.25 		"/>
		<polygon class="st0" points="266.08,231.07 264.97,232.18 277.77,244.98 278.03,245.24 279.14,244.13 266.34,231.32 		"/>
		<path class="st0" d="M284.41,227.3c-1.73,0-3.43,0.94-5.09,1.85c-1.44,0.79-2.8,1.54-3.97,1.54c-0.65,0-1.19-0.23-1.68-0.72
			c-1.36-1.36-1.08-3.67,0.64-5.39c1.46-1.46,3.1-2.09,4.93-1.85l0.39,0.05l0.07-1.64l-0.34-0.04c-2.18-0.23-4.3,0.58-6.13,2.4
			c-2.08,2.08-3,5.37-0.73,7.64c0.83,0.83,1.74,1.23,2.81,1.23c1.57,0,3.18-0.9,4.74-1.77c1.45-0.81,2.96-1.65,4.29-1.65
			c0.81,0,1.52,0.31,2.15,0.95c0.61,0.61,2.34,2.83-0.8,5.96c-1.62,1.62-3.49,1.96-4.77,1.96c-0.24,0-0.47-0.01-0.69-0.03
			l-0.38-0.04l-0.1,1.63l0.34,0.04c0.28,0.03,0.57,0.05,0.86,0.05c2.11,0,4.17-0.9,5.81-2.54c1.56-1.56,2.35-3.16,2.35-4.76
			c0-1.72-0.92-2.9-1.46-3.44C286.7,227.77,285.64,227.3,284.41,227.3z"/>
		<path class="st0" d="M298.36,214.03c2.27-2.27,2.31-5.52,0.11-7.73c-1.06-1.06-2.41-1.65-3.8-1.65c-1.43,0-2.79,0.61-3.94,1.76
			l-4.61,4.6l12.8,12.8l0.26,0.26l1.12-1.11l-5.44-5.44L298.36,214.03z M298.52,210.2c0,1-0.44,1.96-1.26,2.78l-3.47,3.47
			l-5.47-5.47l3.47-3.47c1.62-1.62,3.92-1.63,5.51-0.04C298.1,208.26,298.52,209.2,298.52,210.2z"/>
		<path class="st0" d="M309.02,191.14c-2.24,0-4.32,0.89-6.01,2.58c-3.66,3.66-3.45,8.99,0.53,12.96c2.01,2.01,4.48,3.11,6.95,3.11
			c2.24,0,4.32-0.9,6.01-2.59c3.6-3.6,3.38-9.06-0.52-12.96C313.97,192.25,311.5,191.14,309.02,191.14z M317.49,200.87
			c0.13,1.96-0.59,3.78-2.07,5.26c-1.37,1.37-3.04,2.1-4.82,2.1c-2.05,0-4.14-0.96-5.89-2.72c-3.39-3.39-3.64-7.69-0.62-10.72
			c1.37-1.37,3.04-2.1,4.83-2.1c2.05,0,4.14,0.96,5.89,2.71C316.41,197.03,317.37,198.96,317.49,200.87z"/>
		<path class="st0" d="M326.82,184.89c-1.73,0-3.43,0.94-5.09,1.85c-1.44,0.79-2.8,1.54-3.98,1.54c-0.65,0-1.19-0.24-1.68-0.72
			c-1.36-1.36-1.08-3.67,0.64-5.39c1.46-1.46,3.1-2.09,4.93-1.86l0.39,0.05l0.07-1.63l-0.34-0.04c-0.24-0.02-0.49-0.04-0.74-0.04
			c-1.96,0-3.77,0.82-5.39,2.44c-2.08,2.08-2.99,5.37-0.73,7.64c0.83,0.83,1.74,1.23,2.81,1.23c1.57,0,3.18-0.9,4.74-1.77
			c1.45-0.81,2.96-1.65,4.29-1.65c0.81,0,1.52,0.31,2.16,0.95c0.61,0.61,2.34,2.83-0.8,5.96c-1.62,1.62-3.49,1.96-4.77,1.96
			c-0.24,0-0.47-0.01-0.69-0.03l-0.38-0.04l-0.1,1.64l0.34,0.04c0.28,0.03,0.57,0.05,0.85,0.05c2.12,0,4.18-0.9,5.82-2.54
			c1.56-1.56,2.35-3.16,2.35-4.76c0-1.72-0.92-2.9-1.46-3.44C329.11,185.36,328.04,184.89,326.82,184.89z"/>
		<path class="st0" d="M338.38,173.33c-1.73,0-3.43,0.94-5.09,1.85c-1.44,0.79-2.8,1.54-3.98,1.54c-0.65,0-1.19-0.24-1.68-0.72
			c-1.36-1.35-1.08-3.67,0.64-5.39c1.46-1.46,3.09-2.09,4.93-1.86l0.39,0.05l0.07-1.63l-0.34-0.04c-2.18-0.22-4.3,0.58-6.13,2.4
			c-2.08,2.08-3,5.37-0.73,7.64c0.83,0.83,1.74,1.23,2.81,1.23c1.57,0,3.18-0.9,4.74-1.77c1.45-0.81,2.96-1.65,4.29-1.65
			c0.81,0,1.52,0.31,2.15,0.95c0.61,0.61,2.34,2.83-0.8,5.96c-1.62,1.62-3.49,1.96-4.77,1.96c-0.24,0-0.47-0.01-0.69-0.03
			l-0.38-0.04l-0.1,1.64l0.34,0.04c0.28,0.03,0.56,0.05,0.86,0.05c2.11,0,4.18-0.9,5.82-2.54c1.56-1.56,2.35-3.16,2.35-4.76
			c0-1.72-0.92-2.9-1.46-3.44C340.67,173.8,339.6,173.33,338.38,173.33z"/>
		<polygon class="st0" points="335.68,161.46 334.58,162.58 347.38,175.38 347.63,175.63 348.74,174.52 335.94,161.72 		"/>
		<path class="st0" d="M353.68,157.36c-0.53,0-1.04,0.08-1.49,0.24c0.44-1.4,0.19-3.18-1.18-4.55c-2.08-2.08-4.92-1.98-7.13,0.23
			l-4.98,4.98l12.8,12.8l0.26,0.26l5.05-5.05c1.16-1.15,1.79-2.45,1.84-3.75c0.05-1.33-0.52-2.62-1.63-3.74
			C356.32,157.89,355,157.36,353.68,157.36z M355.93,165.18l-3.94,3.94l-5.09-5.09l3.94-3.94c0.8-0.81,1.73-1.23,2.69-1.23
			c0.92,0,1.82,0.39,2.53,1.1C357.65,161.55,357.6,163.51,355.93,165.18z M349.68,159.09l-3.87,3.86l-4.73-4.74l3.86-3.86
			c1.52-1.51,3.49-1.53,4.89-0.13C350.97,155.36,351.53,157.24,349.68,159.09z"/>
		<polygon class="st0" points="364.23,156.88 352.51,145.15 352.25,144.9 351.14,146.01 363.94,158.82 364.2,159.07 371.61,151.66 
			370.53,150.58 		"/>
		<polygon class="st0" points="381.3,139.81 374.23,146.88 369.14,141.79 376.08,134.85 375,133.77 368.06,140.71 363.32,135.97 
			370.39,128.9 369.32,127.83 361.14,136.01 373.94,148.82 374.2,149.07 382.38,140.89 		"/>
	</g>
	<g>
		<path class="st0" d="M69.47,327.89l-28.61-28.61l13.71-13.71l4.28,4.28l-8.8,8.8l7.37,7.37l6.58-6.58l4.28,4.28l-6.58,6.58
			l12.68,12.68L69.47,327.89z"/>
		<path class="st0" d="M87.16,310.2l-28.61-28.61l4.91-4.91l28.61,28.61L87.16,310.2z"/>
		<path class="st0" d="M101.47,295.89l-4.91,4.91l-28.61-28.61l6.89-6.89c5.51-5.51,10.66-5.98,16.76,0.12
			c4.6,4.6,4.68,8.24,3.77,10.66l17.12,8.8l-4.99,4.99l-15.34-8.36c-0.56,0.71-1.55,1.78-2.42,2.65L101.47,295.89z M85.7,280.11
			l1.74-1.74c2.66-2.66,2.66-4.64-0.75-8.04c-3.41-3.41-5.39-3.41-8.04-0.75l-1.74,1.74L85.7,280.11z"/>
		<path class="st0" d="M103.63,250.62c-2.66-2.26-4.68-1.66-5.79-0.56c-1.58,1.58-1.43,3.49,0.36,5.27
			c4.87,4.87,17.2-2.77,24.97,4.99c4.72,4.71,4.16,10.5-0.44,15.1c-4.56,4.56-10.82,3.53-15.3-0.55l4-5.35
			c3.09,2.69,5.67,2.97,7.25,1.39c1.7-1.7,1.94-3.77,0.24-5.47c-5.67-5.67-17.16,2.81-25.36-5.39c-4.56-4.56-4.36-9.91,0.48-14.74
			c4-4,9.27-3.49,13.75,0.12L103.63,250.62z"/>
		<path class="st0" d="M112.99,235.71l-4.75,4.75l-4.28-4.28l14.42-14.42l4.28,4.28l-4.76,4.76l24.33,24.33l-4.91,4.91
			L112.99,235.71z"/>
		<path class="st0" d="M157.09,240.27l-28.61-28.61l7.05-7.05c6.06-6.06,11.21-6.54,17.32-0.44c6.1,6.1,5.63,11.25-0.44,17.32
			l-2.14,2.14l11.73,11.73L157.09,240.27z M146.24,219.58l1.9-1.9c3.21-3.21,3.21-5.19-0.2-8.6c-3.41-3.41-5.39-3.41-8.6-0.2
			l-1.9,1.9L146.24,219.58z"/>
		<path class="st0" d="M176.61,220.75L148,192.14l4.91-4.91l24.33,24.33l7.73-7.73l4.28,4.28L176.61,220.75z"/>
		<path class="st0" d="M196.44,200.92l-4.76,4.76l-23.34-33.88l6.1-6.1l33.88,23.34l-4.76,4.75l-7.21-5.47l-5.39,5.39L196.44,200.92
			z M187.4,188.72l3.96-3.96l-14.23-10.34l-0.08,0.08L187.4,188.72z"/>
		<path class="st0" d="M201.86,157.38l-2.22-2.22c-2.42-2.42-4.56-2.34-5.83-1.07c-1.98,1.98-1.58,3.64,0.56,5.79l14.5,14.5
			c2.14,2.14,3.8,2.54,5.79,0.55c1.78-1.78,1.35-3.41-0.51-5.27l-3.45-3.45l4.91-4.91l3.29,3.29c4.04,4.04,4.95,9.71,0.04,14.62
			c-5.15,5.15-10.82,4.24-14.86,0.2l-14.74-14.74c-4.04-4.04-4.95-9.71,0.2-14.86c4.91-4.91,10.86-3.72,15.14,0.55l2.1,2.1
			L201.86,157.38z"/>
		<path class="st0" d="M230.03,167.33l-28.61-28.61l13.16-13.16l4.28,4.28l-8.24,8.24l7.37,7.37l6.34-6.34l4.28,4.28l-6.34,6.34
			l8.4,8.4l8.8-8.8l4.28,4.28L230.03,167.33z"/>
		<path class="st0" d="M134.79,344.08l-28.61-28.61l13.71-13.71l4.28,4.28l-8.8,8.8l7.37,7.37l6.58-6.58l4.28,4.28l-6.58,6.58
			l12.68,12.68L134.79,344.08z"/>
		<path class="st0" d="M130.4,305.13c-4.04-4.04-4.95-9.71,0.2-14.86c5.15-5.15,10.82-4.24,14.86-0.2l14.74,14.74
			c4.04,4.04,4.95,9.71-0.2,14.86c-5.15,5.15-10.82,4.24-14.86,0.2L130.4,305.13z M149.93,314.83c2.14,2.14,3.8,2.54,5.79,0.56
			c1.98-1.98,1.58-3.65-0.55-5.78l-14.5-14.5c-2.14-2.14-3.8-2.54-5.79-0.56c-1.98,1.98-1.58,3.65,0.56,5.79L149.93,314.83z"/>
		<path class="st0" d="M176.19,302.68l-4.91,4.91l-28.61-28.61l6.9-6.9c5.51-5.51,10.66-5.98,16.76,0.12
			c4.6,4.6,4.67,8.24,3.76,10.66l17.12,8.8l-4.99,4.99l-15.34-8.36c-0.55,0.71-1.54,1.78-2.42,2.66L176.19,302.68z M160.42,286.91
			l1.74-1.74c2.65-2.66,2.66-4.64-0.75-8.04c-3.41-3.41-5.39-3.41-8.04-0.75l-1.74,1.74L160.42,286.91z"/>
		<path class="st0" d="M205.2,273.68l-4.91,4.91l-11.89-11.89l-22.67-10.78l4.99-4.99l14.34,7.45l0.08-0.08l-7.61-14.19l4.99-4.99
			l10.78,22.67L205.2,273.68z"/>
		<path class="st0" d="M191.77,243.75c-4.04-4.04-4.95-9.71,0.2-14.86c5.15-5.15,10.82-4.24,14.86-0.2l14.74,14.74
			c4.04,4.04,4.95,9.71-0.2,14.86c-5.15,5.15-10.82,4.24-14.86,0.2L191.77,243.75z M211.31,253.46c2.14,2.14,3.8,2.53,5.78,0.55
			c1.98-1.98,1.58-3.65-0.55-5.79l-14.5-14.5c-2.14-2.14-3.8-2.54-5.79-0.56c-1.98,1.98-1.58,3.65,0.56,5.79L211.31,253.46z"/>
		<path class="st0" d="M204.01,217.64l4.91-4.91l21.6,21.6c2.1,2.1,3.96,2.3,5.75,0.51c1.78-1.78,1.58-3.64-0.52-5.74l-21.6-21.6
			l4.91-4.91l21.4,21.4c4.91,4.91,4.76,10.46,0.08,15.14c-4.68,4.67-10.22,4.83-15.14-0.08L204.01,217.64z"/>
		<path class="st0" d="M231.34,198.87l-4.76,4.75l-4.28-4.28l14.42-14.43l4.28,4.28l-4.75,4.75l24.33,24.33l-4.91,4.91
			L231.34,198.87z"/>
		<path class="st0" d="M268.57,210.31l-28.61-28.61l4.91-4.91l11.65,11.65l5.23-5.23l-11.65-11.65l4.91-4.91l28.61,28.61l-4.91,4.91
			l-12.68-12.68l-5.23,5.23l12.68,12.68L268.57,210.31z"/>
	</g>
	<polygon class="st1" points="285.42,28.96 294.68,38.23 220.93,112.02 287.47,178.61 287.47,108.36 313.09,108.36 313.09,117.54 
		297.99,117.54 298,127.68 312.09,127.68 312.09,136.85 298,136.85 298,186.38 370.37,113.97 379.63,123.24 379.63,28.96 	"/>
</g>
</svg>
